<svg xmlns="http://www.w3.org/2000/svg" xmlns:xlink="http://www.w3.org/1999/xlink" contentStyleType="text/css" height="415px" preserveAspectRatio="none" style="width:799px;height:415px;background:#FFFFFF;" version="1.1" viewBox="0 0 799 415" width="799px" zoomAndPan="magnify"><defs/><g><!--cluster WebEngine--><g id="cluster_WebEngine"><polygon fill="none" points="366,16,376,6,782,6,782,114.3,772,124.3,366,124.3,366,16" style="stroke:#181818;stroke-width:1.0;"/><line style="stroke:#181818;stroke-width:1.0;" x1="772" x2="782" y1="16" y2="6"/><line style="stroke:#181818;stroke-width:1.0;" x1="366" x2="772" y1="16" y2="16"/><line style="stroke:#181818;stroke-width:1.0;" x1="772" x2="772" y1="16" y2="124.3"/><text fill="#000000" font-family="sans-serif" font-size="14" font-weight="bold" lengthAdjust="spacing" textLength="88.7715" x="525.6143" y="31.9951">WebEngine</text></g><!--cluster Postgresql--><g id="cluster_Postgresql"><path d="M233,174.3 C233,164.3 361,164.3 361,164.3 C361,164.3 489,164.3 489,174.3 L489,388.89 C489,398.89 361,398.89 361,398.89 C361,398.89 233,398.89 233,388.89 L233,174.3 " fill="none" style="stroke:#181818;stroke-width:1.0;"/><path d="M233,174.3 C233,184.3 361,184.3 361,184.3 C361,184.3 489,184.3 489,174.3 " fill="none" style="stroke:#181818;stroke-width:1.0;"/><text fill="#000000" font-family="sans-serif" font-size="14" font-weight="bold" lengthAdjust="spacing" textLength="84.4785" x="318.7607" y="199.2951">Postgresql</text></g><!--cluster Uniswap--><g id="cluster_Uniswap"><polygon fill="none" points="16,192.3,26,182.3,201,182.3,201,274.59,191,284.59,16,284.59,16,192.3" style="stroke:#181818;stroke-width:1.0;"/><line style="stroke:#181818;stroke-width:1.0;" x1="191" x2="201" y1="192.3" y2="182.3"/><line style="stroke:#181818;stroke-width:1.0;" x1="16" x2="191" y1="192.3" y2="192.3"/><line style="stroke:#181818;stroke-width:1.0;" x1="191" x2="191" y1="192.3" y2="284.59"/><text fill="#000000" font-family="sans-serif" font-size="14" font-weight="bold" lengthAdjust="spacing" textLength="66.8691" x="71.0654" y="208.2951">Uniswap</text></g><!--entity UserResource--><g id="elem_UserResource"><rect fill="#F1F1F1" height="46.2969" rx="2.5" ry="2.5" style="stroke:#181818;stroke-width:0.5;" width="137.0498" x="409.48" y="54"/><rect fill="#F1F1F1" height="10" style="stroke:#181818;stroke-width:0.5;" width="15" x="526.5298" y="59"/><rect fill="#F1F1F1" height="2" style="stroke:#181818;stroke-width:0.5;" width="4" x="524.5298" y="61"/><rect fill="#F1F1F1" height="2" style="stroke:#181818;stroke-width:0.5;" width="4" x="524.5298" y="65"/><text fill="#000000" font-family="sans-serif" font-size="14" lengthAdjust="spacing" textLength="97.0498" x="424.48" y="86.9951">UserResource</text></g><!--entity CampaignResource--><g id="elem_CampaignResource"><rect fill="#F1F1F1" height="46.2969" rx="2.5" ry="2.5" style="stroke:#181818;stroke-width:0.5;" width="176.2471" x="581.88" y="54"/><rect fill="#F1F1F1" height="10" style="stroke:#181818;stroke-width:0.5;" width="15" x="738.1271" y="59"/><rect fill="#F1F1F1" height="2" style="stroke:#181818;stroke-width:0.5;" width="4" x="736.1271" y="61"/><rect fill="#F1F1F1" height="2" style="stroke:#181818;stroke-width:0.5;" width="4" x="736.1271" y="65"/><text fill="#000000" font-family="sans-serif" font-size="14" lengthAdjust="spacing" textLength="136.2471" x="596.88" y="86.9951">CampaignResource</text></g><!--entity Trading--><g id="elem_Trading"><polygon fill="#F1F1F1" points="623.29,232.3,633.29,222.3,716.7129,222.3,716.7129,258.5969,706.7129,268.5969,623.29,268.5969,623.29,232.3" style="stroke:#181818;stroke-width:0.5;"/><line style="stroke:#181818;stroke-width:0.5;" x1="706.7129" x2="716.7129" y1="232.3" y2="222.3"/><line style="stroke:#181818;stroke-width:0.5;" x1="623.29" x2="706.7129" y1="232.3" y2="232.3"/><line style="stroke:#181818;stroke-width:0.5;" x1="706.7129" x2="706.7129" y1="232.3" y2="268.5969"/><text fill="#000000" font-family="sans-serif" font-size="14" lengthAdjust="spacing" textLength="53.4229" x="638.29" y="255.2951">Trading</text></g><!--entity User0--><g id="elem_User0"><rect fill="#F1F1F1" height="46.2969" rx="2.5" ry="2.5" style="stroke:#181818;stroke-width:0.5;" width="80.8174" x="256.59" y="222.3"/><path d="M283.5291,222.3 L283.5291,227.3 L276.5291,234.3 L256.59,234.3 " fill="none" style="stroke:#181818;stroke-width:0.5;"/><text fill="#000000" font-family="sans-serif" font-size="14" lengthAdjust="spacing" textLength="40.8174" x="271.59" y="255.2951">User0</text></g><!--entity TaskRecord--><g id="elem_TaskRecord"><rect fill="#F1F1F1" height="46.2969" rx="2.5" ry="2.5" style="stroke:#181818;stroke-width:0.5;" width="121.7783" x="290.11" y="328.59"/><path d="M330.7028,328.59 L330.7028,333.59 L323.7028,340.59 L290.11,340.59 " fill="none" style="stroke:#181818;stroke-width:0.5;"/><text fill="#000000" font-family="sans-serif" font-size="14" lengthAdjust="spacing" textLength="81.7783" x="305.11" y="361.5851">TaskRecord</text></g><!--entity Task--><g id="elem_Task"><rect fill="#F1F1F1" height="46.2969" rx="2.5" ry="2.5" style="stroke:#181818;stroke-width:0.5;" width="72.5322" x="372.73" y="222.3"/><path d="M396.9074,222.3 L396.9074,227.3 L389.9074,234.3 L372.73,234.3 " fill="none" style="stroke:#181818;stroke-width:0.5;"/><text fill="#000000" font-family="sans-serif" font-size="14" lengthAdjust="spacing" textLength="32.5322" x="387.73" y="255.2951">Task</text></g><!--entity ABI--><g id="elem_ABI"><ellipse cx="41" cy="245.44" fill="#F1F1F1" rx="8" ry="8" style="stroke:#181818;stroke-width:0.5;"/><text fill="#000000" font-family="sans-serif" font-size="14" lengthAdjust="spacing" textLength="23.3105" x="29.3447" y="275.4351">ABI</text></g><!--entity Contract--><g id="elem_Contract"><rect fill="#F1F1F1" height="46.2969" rx="2.5" ry="2.5" style="stroke:#181818;stroke-width:0.5;" width="100.2246" x="84.89" y="222.3"/><rect fill="#F1F1F1" height="10" style="stroke:#181818;stroke-width:0.5;" width="15" x="165.1146" y="227.3"/><rect fill="#F1F1F1" height="2" style="stroke:#181818;stroke-width:0.5;" width="4" x="163.1146" y="229.3"/><rect fill="#F1F1F1" height="2" style="stroke:#181818;stroke-width:0.5;" width="4" x="163.1146" y="233.3"/><text fill="#000000" font-family="sans-serif" font-size="14" lengthAdjust="spacing" textLength="60.2246" x="99.89" y="255.2951">Contract</text></g><!--link CampaignResource to Trading--><g id="link_CampaignResource_Trading"><path d="M670,100.58 C670,132.31 670,184.01 670,215.84 " fill="none" id="CampaignResource-to-Trading" style="stroke:#181818;stroke-width:1.0;"/><polygon fill="#181818" points="670,221.84,674,212.84,670,216.84,666,212.84,670,221.84" style="stroke:#181818;stroke-width:1.0;"/></g><!--link WebEngine to Postgresql--><g id="link_WebEngine_Postgresql"><path d="M381.3465,124.3065 C381.3918,124.4066 381.4375,124.5066 381.4834,124.6064 C381.667,125.0057 381.855,125.4028 382.0474,125.7975 C382.4322,126.5869 382.8347,127.3667 383.2556,128.1348 C384.0975,129.6712 385.0134,131.1612 386.0095,132.5897 C388.0017,135.4467 390.315,138.0575 393,140.3 C416.36,159.8 438.56,127.75 461,148.3 C464.9613,151.9263 468.2505,156.1158 470.9731,160.6751 C471.6537,161.8149 469.544,157.6477 470.1554,158.8307 " fill="none" id="WebEngine-to-Postgresql" style="stroke:#181818;stroke-width:1.0;"/><polygon fill="#181818" points="472.9104,164.1609,472.3314,154.329,470.6146,159.7191,465.2245,158.0023,472.9104,164.1609" style="stroke:#181818;stroke-width:1.0;"/></g><!--link ABI to Contract--><g id="link_ABI_Contract"><path d="M50.18,245.44 C61.67,245.44 73.15,245.44 84.64,245.44 " fill="none" id="ABI-Contract" style="stroke:#181818;stroke-width:1.0;"/></g><!--link WebEngine to ABI--><g id="link_WebEngine_ABI"><path d="M365.5149,78.9196 C365.1253,78.9565 364.7234,78.9948 364.3092,79.0344 C363.4809,79.1137 362.6039,79.1983 361.6799,79.2882 C354.2878,80.0078 343.8877,81.0709 331.3623,82.4875 C306.3116,85.3206 272.7594,89.5675 237.7663,95.3075 C167.78,106.7875 92.03,124.24 67,148.3 C42.07,172.26 40.0944,211.4713 40.4844,230.1013 " fill="none" id="WebEngine-to-ABI" style="stroke:#181818;stroke-width:1.0;"/><polygon fill="#181818" points="40.61,236.1,44.4208,227.0183,40.5054,231.1011,36.4225,227.1857,40.61,236.1" style="stroke:#181818;stroke-width:1.0;"/></g><!--link User0 to TaskRecord--><g id="link_User0_TaskRecord"><path d="M314.2347,279.7378 C323.2847,297.2278 327.489,305.343 336.549,322.823 " fill="none" id="User0-TaskRecord" style="stroke:#181818;stroke-width:1.0;"/><polygon fill="none" points="308.72,269.08,307.9248,276.2471,314.2347,279.7378,315.03,272.5706,308.72,269.08" style="stroke:#181818;stroke-width:1.0;"/><polygon fill="#181818" points="339.31,328.15,338.7198,318.3188,337.0092,323.7108,331.6172,322.0002,339.31,328.15" style="stroke:#181818;stroke-width:1.0;"/></g><!--link Task to TaskRecord--><g id="link_Task_TaskRecord"><path d="M390.5808,279.569 C380.8608,297.059 376.1959,305.4262 366.4759,322.9062 " fill="none" id="Task-TaskRecord" style="stroke:#181818;stroke-width:1.0;"/><polygon fill="none" points="396.41,269.08,389.999,272.3814,390.5808,279.569,396.9917,276.2676,396.41,269.08" style="stroke:#181818;stroke-width:1.0;"/><polygon fill="#181818" points="363.56,328.15,371.4297,322.2282,365.9899,323.7802,364.438,318.3404,363.56,328.15" style="stroke:#181818;stroke-width:1.0;"/></g><!--SRC=[RO_12i8m44Jl-OhGUy4l45GyU9FIug7qi6tM4BIRcaGyIF_T98qjL7C8vEtip8IqG9vTi3sIL8GPVpFkJrrPD0LQ_JGTDXCwG3-0ahJWaR5VolDyo-lIW50a6rRFtcborjP9W_PnRnYZ69_48NpyiegKVS6G2kts9vxx2fgSWSx5Hcjdhmdh0XoqOBt5aZIvN0tqoCFFDl4zpgm4UokmqqRy6IJahsbLXx1bm_EeMkFn0m00]--></g></svg>