<svg xmlns="http://www.w3.org/2000/svg" xmlns:xlink="http://www.w3.org/1999/xlink" contentStyleType="text/css" height="743px" preserveAspectRatio="none" style="width:2230px;height:743px;background:#FFFFFF;" version="1.1" viewBox="0 0 2230 743" width="2230px" zoomAndPan="magnify"><defs/><g><!--class Campaign--><g id="elem_Campaign"><rect codeLine="1" fill="#F1F1F1" height="80.5938" id="Campaign" rx="2.5" ry="2.5" style="stroke:#181818;stroke-width:0.5;" width="299.1914" x="308.17" y="38.67"/><ellipse cx="417.962" cy="54.67" fill="#ADD1B2" rx="11" ry="11" style="stroke:#181818;stroke-width:1.0;"/><path d="M420.9307,60.3106 Q420.3526,60.6075 419.712,60.7481 Q419.0714,60.9044 418.3682,60.9044 Q415.8682,60.9044 414.5401,59.2637 Q413.2276,57.6075 413.2276,54.4825 Q413.2276,51.3575 414.5401,49.7012 Q415.8682,48.045 418.3682,48.045 Q419.0714,48.045 419.712,48.2012 Q420.3682,48.3575 420.9307,48.6544 L420.9307,51.3731 Q420.3057,50.795 419.712,50.5294 Q419.1182,50.2481 418.4932,50.2481 Q417.1495,50.2481 416.462,51.3262 Q415.7745,52.3887 415.7745,54.4825 Q415.7745,56.5762 416.462,57.6544 Q417.1495,58.7169 418.4932,58.7169 Q419.1182,58.7169 419.712,58.4512 Q420.3057,58.17 420.9307,57.5919 L420.9307,60.3106 Z " fill="#000000"/><text fill="#000000" font-family="sans-serif" font-size="14" lengthAdjust="spacing" textLength="71.1074" x="438.462" y="59.5167">Campaign</text><line style="stroke:#181818;stroke-width:0.5;" x1="309.17" x2="606.3614" y1="70.67" y2="70.67"/><line style="stroke:#181818;stroke-width:0.5;" x1="309.17" x2="606.3614" y1="78.67" y2="78.67"/><ellipse cx="319.17" cy="92.3184" fill="#84BE84" rx="3" ry="3" style="stroke:#038048;stroke-width:1.0;"/><text fill="#000000" font-family="sans-serif" font-size="14" lengthAdjust="spacing" textLength="273.1914" x="328.17" y="95.6651">Swap(address: string, amount: double)</text><ellipse cx="319.17" cy="108.6153" fill="#84BE84" rx="3" ry="3" style="stroke:#038048;stroke-width:1.0;"/><text fill="#000000" font-family="sans-serif" font-size="14" lengthAdjust="spacing" textLength="157.7529" x="328.17" y="111.962">Settlement(final: bool)</text></g><!--class CampaignMode--><g id="elem_CampaignMode"><rect codeLine="22" fill="#F1F1F1" height="80.5938" id="CampaignMode" rx="2.5" ry="2.5" style="stroke:#181818;stroke-width:0.5;" width="146.832" x="661.35" y="252.67"/><ellipse cx="678.861" cy="268.67" fill="#EB937F" rx="11" ry="11" style="stroke:#181818;stroke-width:1.0;"/><path d="M682.9704,274.67 L675.2517,274.67 L675.2517,262.2794 L682.9704,262.2794 L682.9704,264.4356 L677.7048,264.4356 L677.7048,267.1075 L682.4704,267.1075 L682.4704,269.2637 L677.7048,269.2637 L677.7048,272.5137 L682.9704,272.5137 L682.9704,274.67 Z " fill="#000000"/><text fill="#000000" font-family="sans-serif" font-size="14" lengthAdjust="spacing" textLength="109.252" x="693.419" y="273.5167">CampaignMode</text><line style="stroke:#181818;stroke-width:0.5;" x1="662.35" x2="807.182" y1="284.67" y2="284.67"/><text fill="#000000" font-family="sans-serif" font-size="14" lengthAdjust="spacing" textLength="128.8232" x="667.35" y="301.6651">PastBacktestMode</text><text fill="#000000" font-family="sans-serif" font-size="14" lengthAdjust="spacing" textLength="134.832" x="667.35" y="317.962">CurrentActiveMode</text><line style="stroke:#181818;stroke-width:0.5;" x1="662.35" x2="807.182" y1="325.2637" y2="325.2637"/></g><!--class User--><g id="elem_User"><rect codeLine="27" fill="#F1F1F1" height="162.0781" id="User" rx="2.5" ry="2.5" style="stroke:#181818;stroke-width:0.5;" width="268.9834" x="47.27" y="211.93"/><ellipse cx="161.5566" cy="227.93" fill="#ADD1B2" rx="11" ry="11" style="stroke:#181818;stroke-width:1.0;"/><path d="M164.5254,233.5706 Q163.9472,233.8675 163.3066,234.0081 Q162.666,234.1644 161.9629,234.1644 Q159.4629,234.1644 158.1347,232.5237 Q156.8222,230.8675 156.8222,227.7425 Q156.8222,224.6175 158.1347,222.9612 Q159.4629,221.305 161.9629,221.305 Q162.666,221.305 163.3066,221.4612 Q163.9629,221.6175 164.5254,221.9144 L164.5254,224.6331 Q163.9004,224.055 163.3066,223.7894 Q162.7129,223.5081 162.0879,223.5081 Q160.7441,223.5081 160.0566,224.5862 Q159.3691,225.6487 159.3691,227.7425 Q159.3691,229.8362 160.0566,230.9144 Q160.7441,231.9769 162.0879,231.9769 Q162.7129,231.9769 163.3066,231.7112 Q163.9004,231.43 164.5254,230.8519 L164.5254,233.5706 Z " fill="#000000"/><text fill="#000000" font-family="sans-serif" font-size="14" lengthAdjust="spacing" textLength="31.9102" x="182.0566" y="232.7767">User</text><line style="stroke:#181818;stroke-width:0.5;" x1="48.27" x2="315.2534" y1="243.93" y2="243.93"/><rect fill="none" height="6" style="stroke:#C82930;stroke-width:1.0;" width="6" x="55.27" y="254.5784"/><text fill="#000000" font-family="sans-serif" font-size="14" lengthAdjust="spacing" textLength="62.1318" x="67.27" y="260.9251">id: string</text><rect fill="none" height="6" style="stroke:#C82930;stroke-width:1.0;" width="6" x="55.27" y="270.8753"/><text fill="#000000" font-family="sans-serif" font-size="14" lengthAdjust="spacing" textLength="104.665" x="67.27" y="277.222">address: string</text><rect fill="none" height="6" style="stroke:#C82930;stroke-width:1.0;" width="6" x="55.27" y="287.1722"/><text fill="#000000" font-family="sans-serif" font-size="14" lengthAdjust="spacing" textLength="143.9102" x="67.27" y="293.5189">totalAmount: double</text><rect fill="none" height="6" style="stroke:#C82930;stroke-width:1.0;" width="6" x="55.27" y="303.4691"/><text fill="#000000" font-family="sans-serif" font-size="14" lengthAdjust="spacing" textLength="101.9854" x="67.27" y="309.8157">totalPoints: int</text><line style="stroke:#181818;stroke-width:0.5;" x1="48.27" x2="315.2534" y1="317.1175" y2="317.1175"/><ellipse cx="58.27" cy="330.7659" fill="#84BE84" rx="3" ry="3" style="stroke:#038048;stroke-width:1.0;"/><text fill="#000000" font-family="sans-serif" font-size="14" lengthAdjust="spacing" textLength="175.4512" x="67.27" y="334.1126">AddPoint(point: int): void</text><ellipse cx="58.27" cy="347.0628" fill="#84BE84" rx="3" ry="3" style="stroke:#038048;stroke-width:1.0;"/><text fill="#000000" font-family="sans-serif" font-size="14" lengthAdjust="spacing" textLength="242.9834" x="67.27" y="350.4095">AddAmount(amount: double): void</text><ellipse cx="58.27" cy="363.3597" fill="#84BE84" rx="3" ry="3" style="stroke:#038048;stroke-width:1.0;"/><text fill="#000000" font-family="sans-serif" font-size="14" lengthAdjust="spacing" textLength="201.3799" x="67.27" y="366.7064">AcceptTask(task: Task): void</text></g><path d="M642.11,6 L642.11,37.2656 L601.3614,90.8184 L642.11,45.2656 L642.11,76.5313 A0,0 0 0 0 642.11,76.5313 L1235.421,76.5313 A0,0 0 0 0 1235.421,76.5313 L1235.421,16 L1225.421,6 L642.11,6 A0,0 0 0 0 642.11,6 " fill="#FEFFDD" style="stroke:#181818;stroke-width:0.5;"/><path d="M1225.421,6 L1225.421,16 L1235.421,16 L1225.421,6 " fill="#FEFFDD" style="stroke:#181818;stroke-width:0.5;"/><text fill="#000000" font-family="sans-serif" font-size="13" lengthAdjust="spacing" textLength="572.311" x="648.11" y="23.0669">Based on the proportion of user's swap volume (USD) among all users on {Target Pool}</text><text fill="#000000" font-family="sans-serif" font-size="13" lengthAdjust="spacing" textLength="138.2139" x="648.11" y="38.1997">1. User swap amount</text><text fill="#000000" font-family="sans-serif" font-size="13" lengthAdjust="spacing" textLength="156.876" x="648.11" y="53.3325">2. Join user in campaign</text><text fill="#000000" font-family="sans-serif" font-size="13" lengthAdjust="spacing" textLength="185.1738" x="648.11" y="68.4653">3. Give onboard task to user</text><path d="M642.11,86.5313 L642.11,110.2305 L485.9229,107.1153 L642.11,118.2305 L642.11,141.9297 A0,0 0 0 0 642.11,141.9297 L900.4171,141.9297 A0,0 0 0 0 900.4171,141.9297 L900.4171,96.5313 L890.4171,86.5313 L642.11,86.5313 A0,0 0 0 0 642.11,86.5313 " fill="#FEFFDD" style="stroke:#181818;stroke-width:0.5;"/><path d="M890.4171,86.5313 L890.4171,96.5313 L900.4171,96.5313 L890.4171,86.5313 " fill="#FEFFDD" style="stroke:#181818;stroke-width:0.5;"/><text fill="#000000" font-family="sans-serif" font-size="13" lengthAdjust="spacing" textLength="182.5713" x="648.11" y="103.5981">At the end of the campaign,</text><text fill="#000000" font-family="sans-serif" font-size="13" lengthAdjust="spacing" textLength="237.3071" x="648.11" y="118.731">users will get rewards based on how</text><text fill="#000000" font-family="sans-serif" font-size="13" lengthAdjust="spacing" textLength="198.123" x="648.11" y="133.8638">many points they accumulate.</text><!--class TaskRecord--><g id="elem_TaskRecord"><rect codeLine="37" fill="#F1F1F1" height="162.0781" id="TaskRecord" rx="2.5" ry="2.5" style="stroke:#181818;stroke-width:0.5;" width="307.5313" x="7" y="434.01"/><ellipse cx="115.6265" cy="450.01" fill="#ADD1B2" rx="11" ry="11" style="stroke:#181818;stroke-width:1.0;"/><path d="M118.5952,455.6506 Q118.0171,455.9475 117.3765,456.0881 Q116.7358,456.2444 116.0327,456.2444 Q113.5327,456.2444 112.2046,454.6037 Q110.8921,452.9475 110.8921,449.8225 Q110.8921,446.6975 112.2046,445.0412 Q113.5327,443.385 116.0327,443.385 Q116.7358,443.385 117.3765,443.5412 Q118.0327,443.6975 118.5952,443.9944 L118.5952,446.7131 Q117.9702,446.135 117.3765,445.8694 Q116.7827,445.5881 116.1577,445.5881 Q114.814,445.5881 114.1265,446.6662 Q113.439,447.7287 113.439,449.8225 Q113.439,451.9162 114.1265,452.9944 Q114.814,454.0569 116.1577,454.0569 Q116.7827,454.0569 117.3765,453.7912 Q117.9702,453.51 118.5952,452.9319 L118.5952,455.6506 Z " fill="#000000"/><text fill="#000000" font-family="sans-serif" font-size="14" lengthAdjust="spacing" textLength="81.7783" x="136.1265" y="454.8567">TaskRecord</text><line style="stroke:#181818;stroke-width:0.5;" x1="8" x2="313.5313" y1="466.01" y2="466.01"/><rect fill="none" height="6" style="stroke:#C82930;stroke-width:1.0;" width="6" x="15" y="476.6584"/><text fill="#000000" font-family="sans-serif" font-size="14" lengthAdjust="spacing" textLength="57.6816" x="27" y="483.0051">id:string</text><rect fill="none" height="6" style="stroke:#C82930;stroke-width:1.0;" width="6" x="15" y="492.9553"/><text fill="#000000" font-family="sans-serif" font-size="14" lengthAdjust="spacing" textLength="143.6572" x="27" y="499.302">swapAmount:double</text><rect fill="none" height="6" style="stroke:#C82930;stroke-width:1.0;" width="6" x="15" y="509.2522"/><text fill="#000000" font-family="sans-serif" font-size="14" lengthAdjust="spacing" textLength="97.3438" x="27" y="515.5989">earnPoints:int</text><rect fill="none" height="6" style="stroke:#C82930;stroke-width:1.0;" width="6" x="15" y="525.5491"/><text fill="#000000" font-family="sans-serif" font-size="14" lengthAdjust="spacing" textLength="148.3535" x="27" y="531.8957">completedTime: long</text><line style="stroke:#181818;stroke-width:0.5;" x1="8" x2="313.5313" y1="539.1975" y2="539.1975"/><ellipse cx="18" cy="552.8459" fill="#84BE84" rx="3" ry="3" style="stroke:#038048;stroke-width:1.0;"/><text fill="#000000" font-family="sans-serif" font-size="14" lengthAdjust="spacing" textLength="205.9873" x="27" y="556.1926">SetEarnPoints(point:int): void</text><ellipse cx="18" cy="569.1428" fill="#84BE84" rx="3" ry="3" style="stroke:#038048;stroke-width:1.0;"/><text fill="#000000" font-family="sans-serif" font-size="14" lengthAdjust="spacing" textLength="281.5313" x="27" y="572.4895">AddSwapAmount(amount: double)) void</text><ellipse cx="18" cy="585.4397" fill="#84BE84" rx="3" ry="3" style="stroke:#038048;stroke-width:1.0;"/><text fill="#000000" font-family="sans-serif" font-size="14" lengthAdjust="spacing" textLength="126.0752" x="27" y="588.7864">Completed(): void</text></g><!--class Task--><g id="elem_Task"><rect codeLine="56" fill="#F1F1F1" height="113.1875" id="Task" rx="2.5" ry="2.5" style="stroke:#181818;stroke-width:0.5;" width="236.8203" x="389.36" y="236.38"/><ellipse cx="487.254" cy="252.38" fill="#A9DCDF" rx="11" ry="11" style="stroke:#181818;stroke-width:1.0;"/><path d="M487.3634,247.7237 L486.2072,252.8019 L488.5353,252.8019 L487.3634,247.7237 Z M485.879,245.4894 L488.8634,245.4894 L492.2228,257.88 L489.7697,257.88 L489.004,254.8175 L485.7228,254.8175 L484.9728,257.88 L482.5353,257.88 L485.879,245.4894 Z " fill="#000000"/><text fill="#000000" font-family="sans-serif" font-size="14" font-style="italic" lengthAdjust="spacing" textLength="32.5322" x="507.754" y="257.2267">Task</text><line style="stroke:#181818;stroke-width:0.5;" x1="390.36" x2="625.1803" y1="268.38" y2="268.38"/><rect fill="none" height="6" style="stroke:#C82930;stroke-width:1.0;" width="6" x="397.36" y="279.0284"/><text fill="#000000" font-family="sans-serif" font-size="14" lengthAdjust="spacing" textLength="89.0586" x="409.36" y="285.3751">name: string</text><rect fill="none" height="6" style="stroke:#C82930;stroke-width:1.0;" width="6" x="397.36" y="295.3253"/><text fill="#000000" font-family="sans-serif" font-size="14" lengthAdjust="spacing" textLength="111.7197" x="409.36" y="301.672">rewardPoint: int</text><line style="stroke:#181818;stroke-width:0.5;" x1="390.36" x2="625.1803" y1="308.9737" y2="308.9737"/><ellipse cx="400.36" cy="322.6222" fill="#84BE84" rx="3" ry="3" style="stroke:#038048;stroke-width:1.0;"/><text fill="#000000" font-family="sans-serif" font-size="14" lengthAdjust="spacing" textLength="108.8623" x="409.36" y="325.9689">GetUser(): User</text><ellipse cx="400.36" cy="338.9191" fill="#84BE84" rx="3" ry="3" style="stroke:#038048;stroke-width:1.0;"/><text fill="#000000" font-family="sans-serif" font-size="14" lengthAdjust="spacing" textLength="210.8203" x="409.36" y="342.2657">IsTargetUser(user: User): bool</text></g><ellipse cx="352.77" cy="292.97" fill="#181818" rx="2" ry="2" style="stroke:#181818;stroke-width:1.0;"/><!--class TaskStatus--><g id="elem_TaskStatus"><rect codeLine="51" fill="#F1F1F1" height="80.5938" id="TaskStatus" rx="2.5" ry="2.5" style="stroke:#181818;stroke-width:0.5;" width="109.1436" x="106.19" y="656.09"/><ellipse cx="121.19" cy="672.09" fill="#EB937F" rx="11" ry="11" style="stroke:#181818;stroke-width:1.0;"/><path d="M125.2994,678.09 L117.5806,678.09 L117.5806,665.6994 L125.2994,665.6994 L125.2994,667.8556 L120.0338,667.8556 L120.0338,670.5275 L124.7994,670.5275 L124.7994,672.6837 L120.0338,672.6837 L120.0338,675.9337 L125.2994,675.9337 L125.2994,678.09 Z " fill="#000000"/><text fill="#000000" font-family="sans-serif" font-size="14" lengthAdjust="spacing" textLength="77.1436" x="135.19" y="676.9367">TaskStatus</text><line style="stroke:#181818;stroke-width:0.5;" x1="107.19" x2="214.3336" y1="688.09" y2="688.09"/><text fill="#000000" font-family="sans-serif" font-size="14" lengthAdjust="spacing" textLength="60.9561" x="112.19" y="705.0851">OnGoing</text><text fill="#000000" font-family="sans-serif" font-size="14" lengthAdjust="spacing" textLength="76.3574" x="112.19" y="721.382">Completed</text><line style="stroke:#181818;stroke-width:0.5;" x1="107.19" x2="214.3336" y1="728.6837" y2="728.6837"/></g><!--class OnboardingTask--><g id="elem_OnboardingTask"><rect codeLine="63" fill="#F1F1F1" height="145.7813" id="OnboardingTask" rx="2.5" ry="2.5" style="stroke:#181818;stroke-width:0.5;" width="316.0625" x="349.73" y="442.16"/><ellipse cx="446.1372" cy="458.16" fill="#ADD1B2" rx="11" ry="11" style="stroke:#181818;stroke-width:1.0;"/><path d="M449.106,463.8006 Q448.5279,464.0975 447.8872,464.2381 Q447.2466,464.3944 446.5435,464.3944 Q444.0435,464.3944 442.7154,462.7537 Q441.4029,461.0975 441.4029,457.9725 Q441.4029,454.8475 442.7154,453.1912 Q444.0435,451.535 446.5435,451.535 Q447.2466,451.535 447.8872,451.6912 Q448.5435,451.8475 449.106,452.1444 L449.106,454.8631 Q448.481,454.285 447.8872,454.0194 Q447.2935,453.7381 446.6685,453.7381 Q445.3247,453.7381 444.6372,454.8162 Q443.9497,455.8787 443.9497,457.9725 Q443.9497,460.0662 444.6372,461.1444 Q445.3247,462.2069 446.6685,462.2069 Q447.2935,462.2069 447.8872,461.9412 Q448.481,461.66 449.106,461.0819 L449.106,463.8006 Z " fill="#000000"/><text fill="#000000" font-family="sans-serif" font-size="14" lengthAdjust="spacing" textLength="114.748" x="466.6372" y="463.0067">OnboardingTask</text><line style="stroke:#181818;stroke-width:0.5;" x1="350.73" x2="664.7925" y1="474.16" y2="474.16"/><rect fill="none" height="6" style="stroke:#C82930;stroke-width:1.0;" width="6" x="357.73" y="484.8084"/><text fill="#000000" font-family="sans-serif" font-size="14" lengthAdjust="spacing" textLength="224.4375" x="369.73" y="491.1551">name: string = OnboardingTask</text><rect fill="none" height="6" style="stroke:#C82930;stroke-width:1.0;" width="6" x="357.73" y="501.1053"/><text fill="#000000" font-family="sans-serif" font-size="14" lengthAdjust="spacing" textLength="167.9795" x="369.73" y="507.452">rewardPoint: int = 1000</text><line style="stroke:#181818;stroke-width:0.5;" x1="350.73" x2="664.7925" y1="514.7538" y2="514.7538"/><ellipse cx="360.73" cy="528.4022" fill="#84BE84" rx="3" ry="3" style="stroke:#038048;stroke-width:1.0;"/><text fill="#000000" font-family="sans-serif" font-size="14" lengthAdjust="spacing" textLength="149.6045" x="369.73" y="531.7489">getRewardPoint(): int</text><ellipse cx="360.73" cy="544.6991" fill="#84BE84" rx="3" ry="3" style="stroke:#038048;stroke-width:1.0;"/><text fill="#000000" font-family="sans-serif" font-size="14" lengthAdjust="spacing" textLength="198.1807" x="369.73" y="548.0457">Completed(amount: double)</text><ellipse cx="360.73" cy="560.9959" fill="#84BE84" rx="3" ry="3" style="stroke:#038048;stroke-width:1.0;"/><text fill="#000000" font-family="sans-serif" font-size="14" lengthAdjust="spacing" textLength="290.0625" x="369.73" y="564.3426">isRequiredAmount(amount: double): void</text><ellipse cx="360.73" cy="577.2928" fill="#84BE84" rx="3" ry="3" style="stroke:#038048;stroke-width:1.0;"/><text fill="#000000" font-family="sans-serif" font-size="14" lengthAdjust="spacing" textLength="98.7588" x="369.73" y="580.6395">reward(): void</text></g><path d="M700.32,489.91 L700.32,506.0428 L659.7925,559.4959 L700.32,514.0428 L700.32,530.1756 A0,0 0 0 0 700.32,530.1756 L1117.2043,530.1756 A0,0 0 0 0 1117.2043,530.1756 L1117.2043,499.91 L1107.2043,489.91 L700.32,489.91 A0,0 0 0 0 700.32,489.91 " fill="#FEFFDD" style="stroke:#181818;stroke-width:0.5;"/><path d="M1107.2043,489.91 L1107.2043,499.91 L1117.2043,499.91 L1107.2043,489.91 " fill="#FEFFDD" style="stroke:#181818;stroke-width:0.5;"/><text fill="#000000" font-family="sans-serif" font-size="13" lengthAdjust="spacing" textLength="253.2271" x="706.32" y="506.9769">The user needs to swap at least 1000u</text><text fill="#000000" font-family="sans-serif" font-size="13" lengthAdjust="spacing" textLength="395.8843" x="706.32" y="522.1097">Users will get 100 points immediately when they complete it</text><!--class SharePoolTask--><g id="elem_SharePoolTask"><rect codeLine="77" fill="#F1F1F1" height="162.0781" id="SharePoolTask" rx="2.5" ry="2.5" style="stroke:#181818;stroke-width:0.5;" width="500.4209" x="1152.56" y="434.01"/><ellipse cx="1347.1689" cy="450.01" fill="#ADD1B2" rx="11" ry="11" style="stroke:#181818;stroke-width:1.0;"/><path d="M1350.1376,455.6506 Q1349.5595,455.9475 1348.9189,456.0881 Q1348.2783,456.2444 1347.5751,456.2444 Q1345.0751,456.2444 1343.747,454.6037 Q1342.4345,452.9475 1342.4345,449.8225 Q1342.4345,446.6975 1343.747,445.0412 Q1345.0751,443.385 1347.5751,443.385 Q1348.2783,443.385 1348.9189,443.5412 Q1349.5751,443.6975 1350.1376,443.9944 L1350.1376,446.7131 Q1349.5126,446.135 1348.9189,445.8694 Q1348.3251,445.5881 1347.7001,445.5881 Q1346.3564,445.5881 1345.6689,446.6662 Q1344.9814,447.7287 1344.9814,449.8225 Q1344.9814,451.9162 1345.6689,452.9944 Q1346.3564,454.0569 1347.7001,454.0569 Q1348.3251,454.0569 1348.9189,453.7912 Q1349.5126,453.51 1350.1376,452.9319 L1350.1376,455.6506 Z " fill="#000000"/><text fill="#000000" font-family="sans-serif" font-size="14" lengthAdjust="spacing" textLength="102.7031" x="1367.6689" y="454.8567">SharePoolTask</text><line style="stroke:#181818;stroke-width:0.5;" x1="1153.56" x2="1651.9809" y1="466.01" y2="466.01"/><rect fill="none" height="6" style="stroke:#C82930;stroke-width:1.0;" width="6" x="1160.56" y="476.6584"/><text fill="#000000" font-family="sans-serif" font-size="14" lengthAdjust="spacing" textLength="212.3926" x="1172.56" y="483.0051">name: string = SharePoolTask</text><rect fill="none" height="6" style="stroke:#C82930;stroke-width:1.0;" width="6" x="1160.56" y="492.9553"/><text fill="#000000" font-family="sans-serif" font-size="14" lengthAdjust="spacing" textLength="176.8867" x="1172.56" y="499.302">rewardPoint: int = 10000</text><line style="stroke:#181818;stroke-width:0.5;" x1="1153.56" x2="1651.9809" y1="506.6037" y2="506.6037"/><ellipse cx="1163.56" cy="520.2522" fill="#84BE84" rx="3" ry="3" style="stroke:#038048;stroke-width:1.0;"/><text fill="#000000" font-family="sans-serif" font-size="14" lengthAdjust="spacing" textLength="474.4209" x="1172.56" y="523.5989">getRewardPoint(addedAmount: double, allUserAmount: double): int</text><ellipse cx="1163.56" cy="536.5491" fill="#84BE84" rx="3" ry="3" style="stroke:#038048;stroke-width:1.0;"/><text fill="#000000" font-family="sans-serif" font-size="14" lengthAdjust="spacing" textLength="364.376" x="1172.56" y="539.8957">Completed(allUserAmount: double, final: bool): void</text><ellipse cx="1163.56" cy="552.8459" fill="#84BE84" rx="3" ry="3" style="stroke:#038048;stroke-width:1.0;"/><text fill="#000000" font-family="sans-serif" font-size="14" lengthAdjust="spacing" textLength="262.8965" x="1172.56" y="556.1926">isCompletedPredecessorTasks(): bool</text><ellipse cx="1163.56" cy="569.1428" fill="#84BE84" rx="3" ry="3" style="stroke:#038048;stroke-width:1.0;"/><text fill="#000000" font-family="sans-serif" font-size="14" lengthAdjust="spacing" textLength="258.9248" x="1172.56" y="572.4895">reward(allUserAmount: double): void</text><ellipse cx="1163.56" cy="585.4397" fill="#84BE84" rx="3" ry="3" style="stroke:#038048;stroke-width:1.0;"/><text fill="#000000" font-family="sans-serif" font-size="14" lengthAdjust="spacing" textLength="113.5107" x="1172.56" y="588.7864">nextTask(): void</text></g><g id="elem_GMN25"><path d="M1158.83,280.4 L1158.83,305.5328 A0,0 0 0 0 1158.83,305.5328 L1398.77,305.5328 L1402.77,433.54 L1406.77,305.5328 L1646.7001,305.5328 A0,0 0 0 0 1646.7001,305.5328 L1646.7001,290.4 L1636.7001,280.4 L1158.83,280.4 A0,0 0 0 0 1158.83,280.4 " fill="#FEFFDD" style="stroke:#181818;stroke-width:0.5;"/><path d="M1636.7001,280.4 L1636.7001,290.4 L1646.7001,290.4 L1636.7001,280.4 " fill="#FEFFDD" style="stroke:#181818;stroke-width:0.5;"/><text fill="#000000" font-family="sans-serif" font-size="13" lengthAdjust="spacing" textLength="466.8701" x="1164.83" y="297.4669">Tasks are calculated on a weekly basis, except for the onboarding task.</text></g><path d="M1687.67,479.91 L1687.67,488.4764 L1435.4565,551.3459 L1687.67,496.4764 L1687.67,505.0428 A0,0 0 0 0 1687.67,505.0428 L2223.8648,505.0428 A0,0 0 0 0 2223.8648,505.0428 L2223.8648,489.91 L2213.8648,479.91 L1687.67,479.91 A0,0 0 0 0 1687.67,479.91 " fill="#FEFFDD" style="stroke:#181818;stroke-width:0.5;"/><path d="M2213.8648,479.91 L2213.8648,489.91 L2223.8648,489.91 L2213.8648,479.91 " fill="#FEFFDD" style="stroke:#181818;stroke-width:0.5;"/><text fill="#000000" font-family="sans-serif" font-size="13" lengthAdjust="spacing" textLength="515.1948" x="1693.67" y="496.9769">The user needs to complete the onboarding task when we distribute the points</text><path d="M1687.67,515.0428 L1687.67,523.6092 L1431.4848,567.6428 L1687.67,531.6092 L1687.67,540.1756 A0,0 0 0 0 1687.67,540.1756 L2181.545,540.1756 A0,0 0 0 0 2181.545,540.1756 L2181.545,525.0428 L2171.545,515.0428 L1687.67,515.0428 A0,0 0 0 0 1687.67,515.0428 " fill="#FEFFDD" style="stroke:#181818;stroke-width:0.5;"/><path d="M2171.545,515.0428 L2171.545,525.0428 L2181.545,525.0428 L2171.545,515.0428 " fill="#FEFFDD" style="stroke:#181818;stroke-width:0.5;"/><text fill="#000000" font-family="sans-serif" font-size="13" lengthAdjust="spacing" textLength="472.875" x="1693.67" y="532.1097">Users could share the points pool of 10,000 points at the end of the task</text><!--link Campaign to CampaignMode--><g id="link_Campaign_CampaignMode"><path codeLine="6" d="M527.038,126.5345 C564.138,151.9645 602.62,179.38 643.77,211.93 C659.77,224.59 672.2229,235.1668 687.0929,248.3668 " fill="none" id="Campaign-CampaignMode" style="stroke:#181818;stroke-width:1.0;"/><polygon fill="none" points="517.14,119.75,519.8275,126.4416,527.038,126.5345,524.3505,119.8429,517.14,119.75" style="stroke:#181818;stroke-width:1.0;"/><polygon fill="#181818" points="691.58,252.35,687.5048,243.3838,687.8407,249.0307,682.1939,249.3666,691.58,252.35" style="stroke:#181818;stroke-width:1.0;"/><text fill="#000000" font-family="sans-serif" font-size="13" lengthAdjust="spacing" textLength="8.271" x="513.3438" y="139.2204">1</text><text fill="#000000" font-family="sans-serif" font-size="13" lengthAdjust="spacing" textLength="8.271" x="671.467" y="241.4585">1</text></g><!--link Campaign to User--><g id="link_Campaign_User"><path codeLine="7" d="M396.6631,126.8996 C363.0331,152.7296 332.2382,176.385 291.3082,207.825 " fill="none" id="Campaign-User" style="stroke:#181818;stroke-width:1.0;"/><polygon fill="#181818" points="406.18,119.59,398.9851,120.0725,396.6631,126.8996,403.8581,126.4171,406.18,119.59" style="stroke:#181818;stroke-width:1.0;"/><polygon fill="#181818" points="286.55,211.48,296.124,209.1697,290.5152,208.4342,291.2507,202.8253,286.55,211.48" style="stroke:#181818;stroke-width:1.0;"/><text fill="#000000" font-family="sans-serif" font-size="13" lengthAdjust="spacing" textLength="8.271" x="385.0344" y="139.3371">1</text><text fill="#000000" font-family="sans-serif" font-size="13" lengthAdjust="spacing" textLength="27.168" x="263.2361" y="200.9051">0...*</text></g><!--link User to apoint12--><g id="link_User_apoint12"><path d="M316.7,292.97 C327.97,292.97 339.24,292.97 350.51,292.97 " fill="none" id="User-apoint12" style="stroke:#181818;stroke-width:1.0;"/><text fill="#000000" font-family="sans-serif" font-size="13" lengthAdjust="spacing" textLength="8.271" x="324.4186" y="289.6304">1</text></g><!--link apoint12 to Task--><g id="link_apoint12_Task"><path d="M355.19,292.97 C366.41,292.97 377.64,292.97 388.86,292.97 " fill="none" id="apoint12-Task" style="stroke:#181818;stroke-width:1.0;"/><text fill="#000000" font-family="sans-serif" font-size="13" lengthAdjust="spacing" textLength="27.168" x="362.7519" y="281.9399">0...*</text></g><!--link apoint12 to TaskRecord--><g id="link_apoint12_TaskRecord"><path d="M352.76,295.21 C352.68,303.01 351.41,345.97 333.77,374.01 C319.98,395.92 301.55,415.95 281.87,433.59 " fill="none" id="apoint12-TaskRecord" style="stroke:#181818;stroke-width:1.0;stroke-dasharray:7.0,7.0;"/></g><!--reverse link TaskRecord to TaskStatus--><g id="link_TaskRecord_TaskStatus"><path codeLine="49" d="M160.77,608.53 C160.77,629.02 160.77,638.15 160.77,655.59 " fill="none" id="TaskRecord-backto-TaskStatus" style="stroke:#181818;stroke-width:1.0;"/><polygon fill="#181818" points="160.77,596.53,156.77,602.53,160.77,608.53,164.77,602.53,160.77,596.53" style="stroke:#181818;stroke-width:1.0;"/><text fill="#000000" font-family="sans-serif" font-size="13" lengthAdjust="spacing" textLength="8.271" x="148.2721" y="616.2494">1</text><text fill="#000000" font-family="sans-serif" font-size="13" lengthAdjust="spacing" textLength="8.271" x="147.8472" y="644.9702">1</text></g><!--reverse link Task to OnboardingTask--><g id="link_Task_OnboardingTask"><path d="M507.77,367.79 C507.77,395.8 507.77,412.07 507.77,442.04 " fill="none" id="Task-backto-OnboardingTask" style="stroke:#181818;stroke-width:1.0;"/><polygon fill="none" points="507.77,349.79,501.77,367.79,513.77,367.79,507.77,349.79" style="stroke:#181818;stroke-width:1.0;"/></g><!--reverse link Task to SharePoolTask--><g id="link_Task_SharePoolTask"><path d="M606.5528,358.681 C623.4928,368.021 625.86,367.94 643.77,374.01 C851.98,444.57 919.56,389.06 1134.77,434.01 C1140.59,435.22 1146.47,436.51 1152.38,437.85 " fill="none" id="Task-backto-SharePoolTask" style="stroke:#181818;stroke-width:1.0;"/><polygon fill="none" points="590.79,349.99,603.6559,363.9352,609.4498,353.4267,590.79,349.99" style="stroke:#181818;stroke-width:1.0;"/></g><!--SRC=[ZLNRRXit47tVhnZufQj4MiZjsm8fe3Y1qG951Cl-06ftB17caYh9ZMe4-VVE3FScHJAi5t4v5vupSpYiZ0e1xbHpK7fdVsH0lu-RephagguzXb12Y5xRtHnKureRIwXTkpKuwrmnHeCDsfW_QwjC2Lldp2pxcMLzKhYvXHjmYyMVQTNl_-DgF7Fw84xBeYW-qDTJG9zbraK4htVx2Evv22vB1YaOFgk0DJWBSOzmyExWVDJqITujPVWjG21N-EvCso3aJvilC-PYTw2C4PV0qJyUbTzXX3NX_oc9Rmk1aC8JUzd_lO2_dROI2lHVTPZ4-4S1z_exKiQjKxw6gC8BH2VE6TeQcCyRh8PwIhPL55OSHswyx0-RYpsXFseYmjWz7kdC0Dk-97jt5Bz6sLSu4EWOECihgAfgczQeYCK45TgsEUbF4iHQXVXPLIyHGvIkyUPTwpt1N5MHwCekzRmIEN7LKkH2rxs0qlUPgj9cT56PrOcy9eQrm2wfqgac7rTrBNkv41B3hAJ-wdgmfsJvcMHFdAeA3_6HkfDpYqhWPUynCE7D1woShqS-K-GiZGxu53SgRplOFUf5vPg3mOZreswm1EEw77o5lWx-7QSBb3R3KUUqPXF7k_wKVC95L2mNR37UBgQMvMoQ9-vG51E-sRWSxcPQi64JLMn39vXn8nNfcxrtVOK6F8n3RQbsgeeIqHNKAgx6jAP9nEkXjudOFKR6ohHaBiZcNo5TMh7mNKZ6MPf2Onk_fSj8H_39WFz5qdou1WC-dGLSnaLkjylbCY4X40-ZdL4EoCUMN9oWEZpWlwts-0xH9WZJrfxEaLFOPNcUMx8yqXIHqMKHgGWqczA0Ys2GBhgGQiNpwNIwaA6V8RffiDOqFSmh7FTeqr3f9GuwJePAQi5chppoR7rd1qxytsp0vGxGeEbPzwMSyy1dJglp2b_grINNEKmVkMbdT1X2rrHkh6Z8ES_OGzxBSTh2QqZ6Z9Pg9EFflDlH7RZNlnP8JWFQfKV2L3BSvH5GS4HyeKxHiw33d8hFem-UdPSNnGsYaSUgkFfAdPp8uhfA-OhE1drSE3R9w8XGQzR0jktSak3UY-dcpVBUJ5HTkTRK43XySWxzESDvRvVpvIXtzSipp907KFy3]--></g></svg>