<svg xmlns="http://www.w3.org/2000/svg" xmlns:xlink="http://www.w3.org/1999/xlink" contentStyleType="text/css" height="474px" preserveAspectRatio="none" style="width:1126px;height:474px;background:#FFFFFF;" version="1.1" viewBox="0 0 1126 474" width="1126px" zoomAndPan="magnify"><defs/><g><!--class UniswapUser--><g id="elem_UniswapUser"><rect codeLine="1" fill="#F1F1F1" height="80.5938" id="UniswapUser" rx="2.5" ry="2.5" style="stroke:#181818;stroke-width:0.5;" width="411.2051" x="103.68" y="7"/><ellipse cx="259.4676" cy="23" fill="#ADD1B2" rx="11" ry="11" style="stroke:#181818;stroke-width:1.0;"/><path d="M262.4363,28.6406 Q261.8582,28.9375 261.2176,29.0781 Q260.577,29.2344 259.8738,29.2344 Q257.3738,29.2344 256.0457,27.5938 Q254.7332,25.9375 254.7332,22.8125 Q254.7332,19.6875 256.0457,18.0313 Q257.3738,16.375 259.8738,16.375 Q260.577,16.375 261.2176,16.5313 Q261.8738,16.6875 262.4363,16.9844 L262.4363,19.7031 Q261.8113,19.125 261.2176,18.8594 Q260.6238,18.5781 259.9988,18.5781 Q258.6551,18.5781 257.9676,19.6563 Q257.2801,20.7188 257.2801,22.8125 Q257.2801,24.9063 257.9676,25.9844 Q258.6551,27.0469 259.9988,27.0469 Q260.6238,27.0469 261.2176,26.7813 Q261.8113,26.5 262.4363,25.9219 L262.4363,28.6406 Z " fill="#000000"/><text fill="#000000" font-family="sans-serif" font-size="14" lengthAdjust="spacing" textLength="91.1299" x="279.9676" y="27.8467">UniswapUser</text><line style="stroke:#181818;stroke-width:0.5;" x1="104.68" x2="513.8851" y1="39" y2="39"/><rect fill="none" height="6" style="stroke:#C82930;stroke-width:1.0;" width="6" x="111.68" y="49.6484"/><text fill="#000000" font-family="sans-serif" font-size="14" lengthAdjust="spacing" textLength="104.665" x="123.68" y="55.9951">address: string</text><line style="stroke:#181818;stroke-width:0.5;" x1="104.68" x2="513.8851" y1="63.2969" y2="63.2969"/><ellipse cx="114.68" cy="76.9453" fill="#84BE84" rx="3" ry="3" style="stroke:#038048;stroke-width:1.0;"/><text fill="#000000" font-family="sans-serif" font-size="14" lengthAdjust="spacing" textLength="385.2051" x="123.68" y="80.292">swap(amount0Out: double, amount1Out: double): void</text></g><!--class Uniswap--><g id="elem_Uniswap"><rect codeLine="8" fill="#F1F1F1" height="72.5625" id="Uniswap" rx="2.5" ry="2.5" style="stroke:#181818;stroke-width:0.5;" width="604.5732" x="7" y="168.61"/><ellipse cx="266.4546" cy="188.7428" fill="#ADD1B2" rx="11" ry="11" style="stroke:#181818;stroke-width:1.0;"/><path d="M269.4233,194.3834 Q268.8452,194.6803 268.2046,194.8209 Q267.564,194.9772 266.8608,194.9772 Q264.3608,194.9772 263.0327,193.3366 Q261.7202,191.6803 261.7202,188.5553 Q261.7202,185.4303 263.0327,183.7741 Q264.3608,182.1178 266.8608,182.1178 Q267.564,182.1178 268.2046,182.2741 Q268.8608,182.4303 269.4233,182.7272 L269.4233,185.4459 Q268.7983,184.8678 268.2046,184.6022 Q267.6108,184.3209 266.9858,184.3209 Q265.6421,184.3209 264.9546,185.3991 Q264.2671,186.4616 264.2671,188.5553 Q264.2671,190.6491 264.9546,191.7272 Q265.6421,192.7897 266.9858,192.7897 Q267.6108,192.7897 268.2046,192.5241 Q268.7983,192.2428 269.4233,191.6647 L269.4233,194.3834 Z " fill="#000000"/><text fill="#000000" font-family="sans-serif" font-size="12" font-style="italic" lengthAdjust="spacing" textLength="81.1641" x="284.9546" y="184.7487">&#171;Third-Party&#187;</text><text fill="#000000" font-family="sans-serif" font-size="14" lengthAdjust="spacing" textLength="59.2197" x="295.9268" y="200.5739">Uniswap</text><line style="stroke:#181818;stroke-width:0.5;" x1="8" x2="610.5732" y1="208.8756" y2="208.8756"/><line style="stroke:#181818;stroke-width:0.5;" x1="8" x2="610.5732" y1="216.8756" y2="216.8756"/><ellipse cx="18" cy="230.5241" fill="#84BE84" rx="3" ry="3" style="stroke:#038048;stroke-width:1.0;"/><text fill="#000000" font-family="sans-serif" font-size="14" lengthAdjust="spacing" textLength="578.5732" x="27" y="233.8707">swap(amount0Out: double, amount1Out: double, to: string, data: byte[0...*]): void</text></g><!--class Etherscan--><g id="elem_Etherscan"><rect codeLine="24" fill="#F1F1F1" height="72.5625" id="Etherscan" rx="2.5" ry="2.5" style="stroke:#181818;stroke-width:0.5;" width="254.1357" x="486.22" y="358.8"/><ellipse cx="570.4558" cy="378.9328" fill="#ADD1B2" rx="11" ry="11" style="stroke:#181818;stroke-width:1.0;"/><path d="M573.4246,384.5734 Q572.8465,384.8703 572.2058,385.0109 Q571.5652,385.1672 570.8621,385.1672 Q568.3621,385.1672 567.034,383.5266 Q565.7215,381.8703 565.7215,378.7453 Q565.7215,375.6203 567.034,373.9641 Q568.3621,372.3078 570.8621,372.3078 Q571.5652,372.3078 572.2058,372.4641 Q572.8621,372.6203 573.4246,372.9172 L573.4246,375.6359 Q572.7996,375.0578 572.2058,374.7922 Q571.6121,374.5109 570.9871,374.5109 Q569.6433,374.5109 568.9558,375.5891 Q568.2683,376.6516 568.2683,378.7453 Q568.2683,380.8391 568.9558,381.9172 Q569.6433,382.9797 570.9871,382.9797 Q571.6121,382.9797 572.2058,382.7141 Q572.7996,382.4328 573.4246,381.8547 L573.4246,384.5734 Z " fill="#000000"/><text fill="#000000" font-family="sans-serif" font-size="12" font-style="italic" lengthAdjust="spacing" textLength="81.1641" x="588.9558" y="374.9387">&#171;Third-Party&#187;</text><text fill="#000000" font-family="sans-serif" font-size="14" lengthAdjust="spacing" textLength="70.0205" x="594.5276" y="390.7639">Etherscan</text><line style="stroke:#181818;stroke-width:0.5;" x1="487.22" x2="739.3557" y1="399.0656" y2="399.0656"/><line style="stroke:#181818;stroke-width:0.5;" x1="487.22" x2="739.3557" y1="407.0656" y2="407.0656"/><ellipse cx="497.22" cy="420.7141" fill="#84BE84" rx="3" ry="3" style="stroke:#038048;stroke-width:1.0;"/><text fill="#000000" font-family="sans-serif" font-size="14" lengthAdjust="spacing" textLength="228.1357" x="506.22" y="424.0607">receive(event: SwapEvent): void</text></g><!--class SwapEvent--><g id="elem_SwapEvent"><rect codeLine="15" fill="#F1F1F1" height="145.7813" id="SwapEvent" rx="2.5" ry="2.5" style="stroke:#181818;stroke-width:0.5;" width="171.1885" x="223.69" y="322.19"/><ellipse cx="266.2657" cy="338.19" fill="#ADD1B2" rx="11" ry="11" style="stroke:#181818;stroke-width:1.0;"/><path d="M269.2344,343.8306 Q268.6563,344.1275 268.0157,344.2681 Q267.3751,344.4244 266.6719,344.4244 Q264.1719,344.4244 262.8438,342.7838 Q261.5313,341.1275 261.5313,338.0025 Q261.5313,334.8775 262.8438,333.2213 Q264.1719,331.565 266.6719,331.565 Q267.3751,331.565 268.0157,331.7213 Q268.6719,331.8775 269.2344,332.1744 L269.2344,334.8931 Q268.6094,334.315 268.0157,334.0494 Q267.4219,333.7681 266.7969,333.7681 Q265.4532,333.7681 264.7657,334.8463 Q264.0782,335.9088 264.0782,338.0025 Q264.0782,340.0963 264.7657,341.1744 Q265.4532,342.2369 266.7969,342.2369 Q267.4219,342.2369 268.0157,341.9713 Q268.6094,341.69 269.2344,341.1119 L269.2344,343.8306 Z " fill="#000000"/><text fill="#000000" font-family="sans-serif" font-size="14" lengthAdjust="spacing" textLength="77.9092" x="286.3936" y="343.0367">SwapEvent</text><line style="stroke:#181818;stroke-width:0.5;" x1="224.69" x2="393.8785" y1="354.19" y2="354.19"/><rect fill="none" height="6" style="stroke:#C82930;stroke-width:1.0;" width="6" x="231.69" y="364.8384"/><text fill="#000000" font-family="sans-serif" font-size="14" lengthAdjust="spacing" textLength="97.3916" x="243.69" y="371.1851">sender: string</text><rect fill="none" height="6" style="stroke:#C82930;stroke-width:1.0;" width="6" x="231.69" y="381.1353"/><text fill="#000000" font-family="sans-serif" font-size="14" lengthAdjust="spacing" textLength="132.8086" x="243.69" y="387.482">amount0In: double</text><rect fill="none" height="6" style="stroke:#C82930;stroke-width:1.0;" width="6" x="231.69" y="397.4322"/><text fill="#000000" font-family="sans-serif" font-size="14" lengthAdjust="spacing" textLength="132.8086" x="243.69" y="403.7789">amount1In: double</text><rect fill="none" height="6" style="stroke:#C82930;stroke-width:1.0;" width="6" x="231.69" y="413.7291"/><text fill="#000000" font-family="sans-serif" font-size="14" lengthAdjust="spacing" textLength="145.1885" x="243.69" y="420.0757">amount0Out: double</text><rect fill="none" height="6" style="stroke:#C82930;stroke-width:1.0;" width="6" x="231.69" y="430.0259"/><text fill="#000000" font-family="sans-serif" font-size="14" lengthAdjust="spacing" textLength="145.1885" x="243.69" y="436.3726">amount1Out: double</text><rect fill="none" height="6" style="stroke:#C82930;stroke-width:1.0;" width="6" x="231.69" y="446.3228"/><text fill="#000000" font-family="sans-serif" font-size="14" lengthAdjust="spacing" textLength="63.4102" x="243.69" y="452.6695">to: string</text><line style="stroke:#181818;stroke-width:0.5;" x1="224.69" x2="393.8785" y1="459.9713" y2="459.9713"/></g><!--class UniswapV2PairABI--><g id="elem_UniswapV2PairABI"><rect codeLine="28" fill="#F1F1F1" height="80.5938" id="UniswapV2PairABI" rx="2.5" ry="2.5" style="stroke:#181818;stroke-width:0.5;" width="472.6807" x="646.95" y="164.59"/><ellipse cx="815.1995" cy="180.59" fill="#B4A7E5" rx="11" ry="11" style="stroke:#181818;stroke-width:1.0;"/><path d="M811.1214,176.3556 L811.1214,174.1994 L818.512,174.1994 L818.512,176.3556 L816.0433,176.3556 L816.0433,184.4338 L818.512,184.4338 L818.512,186.59 L811.1214,186.59 L811.1214,184.4338 L813.5901,184.4338 L813.5901,176.3556 L811.1214,176.3556 Z " fill="#000000"/><text fill="#000000" font-family="sans-serif" font-size="14" font-style="italic" lengthAdjust="spacing" textLength="127.6816" x="835.6995" y="185.4367">UniswapV2PairABI</text><line style="stroke:#181818;stroke-width:0.5;" x1="647.95" x2="1118.6307" y1="196.59" y2="196.59"/><line style="stroke:#181818;stroke-width:0.5;" x1="647.95" x2="1118.6307" y1="204.59" y2="204.59"/><ellipse cx="657.95" cy="218.2384" fill="#84BE84" rx="3" ry="3" style="stroke:#038048;stroke-width:1.0;"/><text fill="#000000" font-family="sans-serif" font-size="14" lengthAdjust="spacing" textLength="446.6807" x="666.95" y="221.5851">NewUniswapV2Filter(pairAddress: string, client: EthClient): void</text><ellipse cx="657.95" cy="234.5353" fill="#84BE84" rx="3" ry="3" style="stroke:#038048;stroke-width:1.0;"/><text fill="#000000" font-family="sans-serif" font-size="14" lengthAdjust="spacing" textLength="182.5879" x="666.95" y="237.882">WatchEvent(): SwapEvent</text></g><!--class EthClient--><g id="elem_EthClient"><rect codeLine="35" fill="#F1F1F1" height="56.2656" id="EthClient" rx="2.5" ry="2.5" style="stroke:#181818;stroke-width:0.5;" width="109.1641" x="828.7" y="366.95"/><ellipse cx="843.7" cy="387.0828" fill="#ADD1B2" rx="11" ry="11" style="stroke:#181818;stroke-width:1.0;"/><path d="M846.6688,392.7234 Q846.0906,393.0203 845.45,393.1609 Q844.8094,393.3172 844.1063,393.3172 Q841.6063,393.3172 840.2781,391.6766 Q838.9656,390.0203 838.9656,386.8953 Q838.9656,383.7703 840.2781,382.1141 Q841.6063,380.4578 844.1063,380.4578 Q844.8094,380.4578 845.45,380.6141 Q846.1063,380.7703 846.6688,381.0672 L846.6688,383.7859 Q846.0438,383.2078 845.45,382.9422 Q844.8563,382.6609 844.2313,382.6609 Q842.8875,382.6609 842.2,383.7391 Q841.5125,384.8016 841.5125,386.8953 Q841.5125,388.9891 842.2,390.0672 Q842.8875,391.1297 844.2313,391.1297 Q844.8563,391.1297 845.45,390.8641 Q846.0438,390.5828 846.6688,390.0047 L846.6688,392.7234 Z " fill="#000000"/><text fill="#000000" font-family="sans-serif" font-size="12" font-style="italic" lengthAdjust="spacing" textLength="81.1641" x="855.7" y="383.0887">&#171;Third-Party&#187;</text><text fill="#000000" font-family="sans-serif" font-size="14" lengthAdjust="spacing" textLength="63.7383" x="864.4129" y="398.9139">EthClient</text><line style="stroke:#181818;stroke-width:0.5;" x1="829.7" x2="936.8641" y1="407.2156" y2="407.2156"/><line style="stroke:#181818;stroke-width:0.5;" x1="829.7" x2="936.8641" y1="415.2156" y2="415.2156"/></g><!--link UniswapUser to Uniswap--><g id="link_UniswapUser_Uniswap"><path codeLine="6" d="M309.29,87.96 C309.29,112.72 309.29,138.33 309.29,162.28 " fill="none" id="UniswapUser-to-Uniswap" style="stroke:#181818;stroke-width:1.0;stroke-dasharray:7.0,7.0;"/><polygon fill="#181818" points="309.29,168.28,313.29,159.28,309.29,163.28,305.29,159.28,309.29,168.28" style="stroke:#181818;stroke-width:1.0;"/><text fill="#000000" font-family="sans-serif" font-size="13" lengthAdjust="spacing" textLength="52.8887" x="310.29" y="130.6569">Operate</text></g><!--link Uniswap to Etherscan--><g id="link_Uniswap_Etherscan"><path codeLine="12" d="M366.82,241.51 C420.96,275.02 496.4783,321.772 550.6283,355.292 " fill="none" id="Uniswap-to-Etherscan" style="stroke:#181818;stroke-width:1.0;stroke-dasharray:7.0,7.0;"/><polygon fill="#181818" points="555.73,358.45,550.1829,350.3119,551.4786,355.8183,545.9722,357.1141,555.73,358.45" style="stroke:#181818;stroke-width:1.0;"/><text fill="#000000" font-family="sans-serif" font-size="13" lengthAdjust="spacing" textLength="46.5664" x="444.29" y="288.2569">Publish</text></g><!--link Uniswap to SwapEvent--><g id="link_Uniswap_SwapEvent"><path codeLine="13" d="M309.29,253.29 C309.29,275.97 309.29,288.22 309.29,315.82 " fill="none" id="Uniswap-SwapEvent" style="stroke:#181818;stroke-width:1.0;"/><polygon fill="none" points="309.29,241.29,305.29,247.29,309.29,253.29,313.29,247.29,309.29,241.29" style="stroke:#181818;stroke-width:1.0;"/><polygon fill="#181818" points="309.29,321.82,313.29,312.82,309.29,316.82,305.29,312.82,309.29,321.82" style="stroke:#181818;stroke-width:1.0;"/><text fill="#000000" font-family="sans-serif" font-size="13" lengthAdjust="spacing" textLength="8.271" x="296.2578" y="261.1882">1</text><text fill="#000000" font-family="sans-serif" font-size="13" lengthAdjust="spacing" textLength="27.168" x="276.8275" y="311.1957">0...*</text></g><!--link UniswapV2PairABI to Etherscan--><g id="link_UniswapV2PairABI_Etherscan"><path codeLine="33" d="M826.36,245.57 C778.39,279 715.3222,322.959 669.1422,355.149 " fill="none" id="UniswapV2PairABI-to-Etherscan" style="stroke:#181818;stroke-width:1.0;"/><polygon fill="#181818" points="664.22,358.58,673.8906,356.7149,668.3218,355.7208,669.3159,350.152,664.22,358.58" style="stroke:#181818;stroke-width:1.0;"/><text fill="#000000" font-family="sans-serif" font-size="13" lengthAdjust="spacing" textLength="41.3042" x="781.29" y="288.2569">Watch</text><text fill="#000000" font-family="sans-serif" font-size="13" lengthAdjust="spacing" textLength="74.4517" x="737.4258" y="265.3267">1 -observer</text><text fill="#000000" font-family="sans-serif" font-size="13" lengthAdjust="spacing" textLength="8.271" x="660.2595" y="347.821">1</text></g><!--link UniswapV2PairABI to EthClient--><g id="link_UniswapV2PairABI_EthClient"><path codeLine="34" d="M883.29,245.34 C883.29,281.66 883.29,328.61 883.29,360.56 " fill="none" id="UniswapV2PairABI-to-EthClient" style="stroke:#181818;stroke-width:1.0;"/><polygon fill="#181818" points="883.29,366.56,887.29,357.56,883.29,361.56,879.29,357.56,883.29,366.56" style="stroke:#181818;stroke-width:1.0;"/><text fill="#000000" font-family="sans-serif" font-size="13" lengthAdjust="spacing" textLength="53.752" x="884.29" y="288.2569">Connect</text><text fill="#000000" font-family="sans-serif" font-size="13" lengthAdjust="spacing" textLength="8.271" x="870.3296" y="265.3601">1</text><text fill="#000000" font-family="sans-serif" font-size="13" lengthAdjust="spacing" textLength="8.271" x="870.0234" y="355.7614">1</text></g><!--SRC=[bL91Ru8m6BtpAxvmmWs8xjWOaisunCiqsTmEYuVQVXjDM6lQYZ76_pue0YMwmpZ1wyTxxtklhA36m5eASw2xjK5z2g1w4igvHcC86Ak5_7RWVJqJqH-rbtQyt5i2NEst1SRGO1CF6n4ebU31EGWySaZJh1KZonrgQZ48cEy1fjEtN6YUhAYsnomx_Liw1gjQtp5mQYc1xT7YvpXDqxlDjJFdQcvpr8PHILOLYJ1vTnfE80IL91c4Zg7wUgtmUOdIjkOxu1AVGSbH3z9BBkuNiZNgmvFRiB_hOFmAxtUkDsjSTJlz4Qf6XgB426ldf5_2YqX8Y_gBCcpxUNzOKQ4VdnONZXSyT2VFegYcerqzCBm_CR12E97AqyozjYAEvODQbZljQEGPyKhgTEi-4hMjRbE9EWJNIzrGNw0Zk_dVSBpnGSAPaXAP3VlKcfFhrCw_]--></g></svg>