<svg xmlns="http://www.w3.org/2000/svg" xmlns:xlink="http://www.w3.org/1999/xlink" contentStyleType="text/css" height="851px" preserveAspectRatio="none" style="width:807px;height:851px;background:#FFFFFF;" version="1.1" viewBox="0 0 807 851" width="807px" zoomAndPan="magnify"><defs/><g><!--class Router--><g id="elem_Router"><rect codeLine="1" fill="#F1F1F1" height="96.8906" id="Router" rx="2.5" ry="2.5" style="stroke:#181818;stroke-width:0.5;" width="272.791" x="276.31" y="7"/><ellipse cx="384.9433" cy="23" fill="#ADD1B2" rx="11" ry="11" style="stroke:#181818;stroke-width:1.0;"/><path d="M387.9121,28.6406 Q387.3339,28.9375 386.6933,29.0781 Q386.0527,29.2344 385.3496,29.2344 Q382.8496,29.2344 381.5214,27.5938 Q380.2089,25.9375 380.2089,22.8125 Q380.2089,19.6875 381.5214,18.0313 Q382.8496,16.375 385.3496,16.375 Q386.0527,16.375 386.6933,16.5313 Q387.3496,16.6875 387.9121,16.9844 L387.9121,19.7031 Q387.2871,19.125 386.6933,18.8594 Q386.0996,18.5781 385.4746,18.5781 Q384.1308,18.5781 383.4433,19.6563 Q382.7558,20.7188 382.7558,22.8125 Q382.7558,24.9063 383.4433,25.9844 Q384.1308,27.0469 385.4746,27.0469 Q386.0996,27.0469 386.6933,26.7813 Q387.2871,26.5 387.9121,25.9219 L387.9121,28.6406 Z " fill="#000000"/><text fill="#000000" font-family="sans-serif" font-size="14" lengthAdjust="spacing" textLength="47.0244" x="405.4433" y="27.8467">Router</text><line style="stroke:#181818;stroke-width:0.5;" x1="277.31" x2="548.101" y1="39" y2="39"/><line style="stroke:#181818;stroke-width:0.5;" x1="277.31" x2="548.101" y1="47" y2="47"/><ellipse cx="287.31" cy="60.6484" fill="#84BE84" rx="3" ry="3" style="stroke:#038048;stroke-width:1.0;"/><text fill="#000000" font-family="sans-serif" font-size="14" lengthAdjust="spacing" textLength="187.5166" x="296.31" y="63.9951">SetupUserResource(): void</text><ellipse cx="287.31" cy="76.9453" fill="#84BE84" rx="3" ry="3" style="stroke:#038048;stroke-width:1.0;"/><text fill="#000000" font-family="sans-serif" font-size="14" lengthAdjust="spacing" textLength="246.791" x="296.31" y="80.292">SetupWebsocketConnection(): void</text><ellipse cx="287.31" cy="93.2422" fill="#84BE84" rx="3" ry="3" style="stroke:#038048;stroke-width:1.0;"/><text fill="#000000" font-family="sans-serif" font-size="14" lengthAdjust="spacing" textLength="202.0225" x="296.31" y="96.5889">SetupCampaignTimer(): void</text></g><!--class GinEngine--><g id="elem_GinEngine"><rect codeLine="9" fill="#F1F1F1" height="56.2656" id="GinEngine" rx="2.5" ry="2.5" style="stroke:#181818;stroke-width:0.5;" width="109.1641" x="358.12" y="164.89"/><ellipse cx="373.12" cy="185.0228" fill="#ADD1B2" rx="11" ry="11" style="stroke:#181818;stroke-width:1.0;"/><path d="M376.0888,190.6634 Q375.5106,190.9603 374.87,191.1009 Q374.2294,191.2572 373.5263,191.2572 Q371.0263,191.2572 369.6981,189.6166 Q368.3856,187.9603 368.3856,184.8353 Q368.3856,181.7103 369.6981,180.0541 Q371.0263,178.3978 373.5263,178.3978 Q374.2294,178.3978 374.87,178.5541 Q375.5263,178.7103 376.0888,179.0072 L376.0888,181.7259 Q375.4638,181.1478 374.87,180.8822 Q374.2763,180.6009 373.6513,180.6009 Q372.3075,180.6009 371.62,181.6791 Q370.9325,182.7416 370.9325,184.8353 Q370.9325,186.9291 371.62,188.0072 Q372.3075,189.0697 373.6513,189.0697 Q374.2763,189.0697 374.87,188.8041 Q375.4638,188.5228 376.0888,187.9447 L376.0888,190.6634 Z " fill="#000000"/><text fill="#000000" font-family="sans-serif" font-size="12" font-style="italic" lengthAdjust="spacing" textLength="81.1641" x="385.12" y="181.0287">&#171;Third-Party&#187;</text><text fill="#000000" font-family="sans-serif" font-size="14" lengthAdjust="spacing" textLength="71.5928" x="389.9056" y="196.8539">GinEngine</text><line style="stroke:#181818;stroke-width:0.5;" x1="359.12" x2="466.2841" y1="205.1556" y2="205.1556"/><line style="stroke:#181818;stroke-width:0.5;" x1="359.12" x2="466.2841" y1="213.1556" y2="213.1556"/></g><!--class CampaignResource--><g id="elem_CampaignResource"><rect codeLine="16" fill="#F1F1F1" height="80.5938" id="CampaignResource" rx="2.5" ry="2.5" style="stroke:#181818;stroke-width:0.5;" width="205.4023" x="7" y="290.31"/><ellipse cx="38.7199" cy="306.31" fill="#ADD1B2" rx="11" ry="11" style="stroke:#181818;stroke-width:1.0;"/><path d="M41.6886,311.9506 Q41.1105,312.2475 40.4699,312.3881 Q39.8292,312.5444 39.1261,312.5444 Q36.6261,312.5444 35.298,310.9038 Q33.9855,309.2475 33.9855,306.1225 Q33.9855,302.9975 35.298,301.3413 Q36.6261,299.685 39.1261,299.685 Q39.8292,299.685 40.4699,299.8413 Q41.1261,299.9975 41.6886,300.2944 L41.6886,303.0131 Q41.0636,302.435 40.4699,302.1694 Q39.8761,301.8881 39.2511,301.8881 Q37.9074,301.8881 37.2199,302.9663 Q36.5324,304.0288 36.5324,306.1225 Q36.5324,308.2163 37.2199,309.2944 Q37.9074,310.3569 39.2511,310.3569 Q39.8761,310.3569 40.4699,310.0913 Q41.0636,309.81 41.6886,309.2319 L41.6886,311.9506 Z " fill="#000000"/><text fill="#000000" font-family="sans-serif" font-size="14" lengthAdjust="spacing" textLength="136.2471" x="56.4354" y="311.1567">CampaignResource</text><line style="stroke:#181818;stroke-width:0.5;" x1="8" x2="211.4023" y1="322.31" y2="322.31"/><line style="stroke:#181818;stroke-width:0.5;" x1="8" x2="211.4023" y1="330.31" y2="330.31"/><ellipse cx="18" cy="343.9584" fill="#84BE84" rx="3" ry="3" style="stroke:#038048;stroke-width:1.0;"/><text fill="#000000" font-family="sans-serif" font-size="14" lengthAdjust="spacing" textLength="169.8662" x="27" y="347.3051">SettlementPoints(): void</text><ellipse cx="18" cy="360.2553" fill="#84BE84" rx="3" ry="3" style="stroke:#038048;stroke-width:1.0;"/><text fill="#000000" font-family="sans-serif" font-size="14" lengthAdjust="spacing" textLength="179.4023" x="27" y="363.602">WatchSwapEvents(): void</text></g><!--class UserResource--><g id="elem_UserResource"><rect codeLine="23" fill="#F1F1F1" height="96.8906" id="UserResource" rx="2.5" ry="2.5" style="stroke:#181818;stroke-width:0.5;" width="329.6045" x="247.9" y="282.16"/><ellipse cx="359.9273" cy="298.16" fill="#ADD1B2" rx="11" ry="11" style="stroke:#181818;stroke-width:1.0;"/><path d="M362.8961,303.8006 Q362.318,304.0975 361.6773,304.2381 Q361.0367,304.3944 360.3336,304.3944 Q357.8336,304.3944 356.5055,302.7538 Q355.193,301.0975 355.193,297.9725 Q355.193,294.8475 356.5055,293.1913 Q357.8336,291.535 360.3336,291.535 Q361.0367,291.535 361.6773,291.6913 Q362.3336,291.8475 362.8961,292.1444 L362.8961,294.8631 Q362.2711,294.285 361.6773,294.0194 Q361.0836,293.7381 360.4586,293.7381 Q359.1148,293.7381 358.4273,294.8163 Q357.7398,295.8788 357.7398,297.9725 Q357.7398,300.0663 358.4273,301.1444 Q359.1148,302.2069 360.4586,302.2069 Q361.0836,302.2069 361.6773,301.9413 Q362.2711,301.66 362.8961,301.0819 L362.8961,303.8006 Z " fill="#000000"/><text fill="#000000" font-family="sans-serif" font-size="14" lengthAdjust="spacing" textLength="97.0498" x="380.4273" y="303.0067">UserResource</text><line style="stroke:#181818;stroke-width:0.5;" x1="248.9" x2="576.5045" y1="314.16" y2="314.16"/><line style="stroke:#181818;stroke-width:0.5;" x1="248.9" x2="576.5045" y1="322.16" y2="322.16"/><ellipse cx="258.9" cy="335.8084" fill="#84BE84" rx="3" ry="3" style="stroke:#038048;stroke-width:1.0;"/><text fill="#000000" font-family="sans-serif" font-size="14" lengthAdjust="spacing" textLength="295.6816" x="267.9" y="339.1551">GetUserTasksStatus(address: string): void</text><ellipse cx="258.9" cy="352.1053" fill="#84BE84" rx="3" ry="3" style="stroke:#038048;stroke-width:1.0;"/><text fill="#000000" font-family="sans-serif" font-size="14" lengthAdjust="spacing" textLength="303.6045" x="267.9" y="355.452">GetUserPointsHistory(address: string): void</text><ellipse cx="258.9" cy="368.4022" fill="#84BE84" rx="3" ry="3" style="stroke:#038048;stroke-width:1.0;"/><text fill="#000000" font-family="sans-serif" font-size="14" lengthAdjust="spacing" textLength="242.416" x="267.9" y="371.7489">GetLeaderboard(task: string): void</text></g><!--class WebsocketConnection--><g id="elem_WebsocketConnection"><rect codeLine="29" fill="#F1F1F1" height="64.2969" id="WebsocketConnection" rx="2.5" ry="2.5" style="stroke:#181818;stroke-width:0.5;" width="188.3242" x="612.54" y="298.45"/><ellipse cx="627.54" cy="314.45" fill="#ADD1B2" rx="11" ry="11" style="stroke:#181818;stroke-width:1.0;"/><path d="M630.5088,320.0906 Q629.9306,320.3875 629.29,320.5281 Q628.6494,320.6844 627.9463,320.6844 Q625.4463,320.6844 624.1181,319.0438 Q622.8056,317.3875 622.8056,314.2625 Q622.8056,311.1375 624.1181,309.4813 Q625.4463,307.825 627.9463,307.825 Q628.6494,307.825 629.29,307.9813 Q629.9463,308.1375 630.5088,308.4344 L630.5088,311.1531 Q629.8838,310.575 629.29,310.3094 Q628.6963,310.0281 628.0713,310.0281 Q626.7275,310.0281 626.04,311.1063 Q625.3525,312.1688 625.3525,314.2625 Q625.3525,316.3563 626.04,317.4344 Q626.7275,318.4969 628.0713,318.4969 Q628.6963,318.4969 629.29,318.2313 Q629.8838,317.95 630.5088,317.3719 L630.5088,320.0906 Z " fill="#000000"/><text fill="#000000" font-family="sans-serif" font-size="14" lengthAdjust="spacing" textLength="156.3242" x="641.54" y="319.2967">WebsocketConnection</text><line style="stroke:#181818;stroke-width:0.5;" x1="613.54" x2="799.8642" y1="330.45" y2="330.45"/><line style="stroke:#181818;stroke-width:0.5;" x1="613.54" x2="799.8642" y1="338.45" y2="338.45"/><ellipse cx="623.54" cy="352.0984" fill="#84BE84" rx="3" ry="3" style="stroke:#038048;stroke-width:1.0;"/><text fill="#000000" font-family="sans-serif" font-size="14" lengthAdjust="spacing" textLength="160.1865" x="632.54" y="355.4451">BindConnection(): void</text></g><!--class EventHub--><g id="elem_EventHub"><rect codeLine="35" fill="#F1F1F1" height="113.1875" id="EventHub" rx="2.5" ry="2.5" style="stroke:#181818;stroke-width:0.5;" width="342.9619" x="236.22" y="456.05"/><ellipse cx="369.2542" cy="472.05" fill="#ADD1B2" rx="11" ry="11" style="stroke:#181818;stroke-width:1.0;"/><path d="M372.2229,477.6906 Q371.6448,477.9875 371.0042,478.1281 Q370.3636,478.2844 369.6604,478.2844 Q367.1604,478.2844 365.8323,476.6438 Q364.5198,474.9875 364.5198,471.8625 Q364.5198,468.7375 365.8323,467.0813 Q367.1604,465.425 369.6604,465.425 Q370.3636,465.425 371.0042,465.5813 Q371.6604,465.7375 372.2229,466.0344 L372.2229,468.7531 Q371.5979,468.175 371.0042,467.9094 Q370.4104,467.6281 369.7854,467.6281 Q368.4417,467.6281 367.7542,468.7063 Q367.0667,469.7688 367.0667,471.8625 Q367.0667,473.9563 367.7542,475.0344 Q368.4417,476.0969 369.7854,476.0969 Q370.4104,476.0969 371.0042,475.8313 Q371.5979,475.55 372.2229,474.9719 L372.2229,477.6906 Z " fill="#000000"/><text fill="#000000" font-family="sans-serif" font-size="14" lengthAdjust="spacing" textLength="68.3936" x="389.7542" y="476.8967">EventHub</text><line style="stroke:#181818;stroke-width:0.5;" x1="237.22" x2="578.1819" y1="488.05" y2="488.05"/><rect fill="none" height="6" style="stroke:#C82930;stroke-width:1.0;" width="6" x="244.22" y="498.6984"/><text fill="#000000" font-family="sans-serif" font-size="14" lengthAdjust="spacing" textLength="176.3945" x="256.22" y="505.0451">subscribers: Subscription</text><line style="stroke:#181818;stroke-width:0.5;" x1="237.22" x2="578.1819" y1="512.3469" y2="512.3469"/><ellipse cx="247.22" cy="525.9953" fill="#84BE84" rx="3" ry="3" style="stroke:#038048;stroke-width:1.0;"/><text fill="#000000" font-family="sans-serif" font-size="14" lengthAdjust="spacing" textLength="299.4346" x="256.22" y="529.342">Subscribe(topic: string, client: Client): void</text><ellipse cx="247.22" cy="542.2922" fill="#84BE84" rx="3" ry="3" style="stroke:#038048;stroke-width:1.0;"/><text fill="#000000" font-family="sans-serif" font-size="14" lengthAdjust="spacing" textLength="316.9619" x="256.22" y="545.6389">Unsubscribe(topic: string, client: Client): void</text><ellipse cx="247.22" cy="558.5891" fill="#84BE84" rx="3" ry="3" style="stroke:#038048;stroke-width:1.0;"/><text fill="#000000" font-family="sans-serif" font-size="14" lengthAdjust="spacing" textLength="304.9238" x="256.22" y="561.9357">Publish(topic: string, message: string): void</text></g><!--class Subscription--><g id="elem_Subscription"><rect fill="#F1F1F1" height="48" id="Subscription" rx="2.5" ry="2.5" style="stroke:#181818;stroke-width:0.5;" width="118.9873" x="348.7" y="634.24"/><ellipse cx="363.7" cy="650.24" fill="#ADD1B2" rx="11" ry="11" style="stroke:#181818;stroke-width:1.0;"/><path d="M366.6688,655.8806 Q366.0906,656.1775 365.45,656.3181 Q364.8094,656.4744 364.1063,656.4744 Q361.6063,656.4744 360.2781,654.8338 Q358.9656,653.1775 358.9656,650.0525 Q358.9656,646.9275 360.2781,645.2713 Q361.6063,643.615 364.1063,643.615 Q364.8094,643.615 365.45,643.7713 Q366.1063,643.9275 366.6688,644.2244 L366.6688,646.9431 Q366.0438,646.365 365.45,646.0994 Q364.8563,645.8181 364.2313,645.8181 Q362.8875,645.8181 362.2,646.8963 Q361.5125,647.9588 361.5125,650.0525 Q361.5125,652.1463 362.2,653.2244 Q362.8875,654.2869 364.2313,654.2869 Q364.8563,654.2869 365.45,654.0213 Q366.0438,653.74 366.6688,653.1619 L366.6688,655.8806 Z " fill="#000000"/><text fill="#000000" font-family="sans-serif" font-size="14" lengthAdjust="spacing" textLength="86.9873" x="377.7" y="655.0867">Subscription</text><line style="stroke:#181818;stroke-width:0.5;" x1="349.7" x2="466.6873" y1="666.24" y2="666.24"/><line style="stroke:#181818;stroke-width:0.5;" x1="349.7" x2="466.6873" y1="674.24" y2="674.24"/></g><!--class Client--><g id="elem_Client"><rect codeLine="46" fill="#F1F1F1" height="80.5938" id="Client" rx="2.5" ry="2.5" style="stroke:#181818;stroke-width:0.5;" width="152.4922" x="331.46" y="764.24"/><ellipse cx="383.191" cy="780.24" fill="#ADD1B2" rx="11" ry="11" style="stroke:#181818;stroke-width:1.0;"/><path d="M386.1597,785.8806 Q385.5816,786.1775 384.941,786.3181 Q384.3003,786.4744 383.5972,786.4744 Q381.0972,786.4744 379.7691,784.8338 Q378.4566,783.1775 378.4566,780.0525 Q378.4566,776.9275 379.7691,775.2713 Q381.0972,773.615 383.5972,773.615 Q384.3003,773.615 384.941,773.7713 Q385.5972,773.9275 386.1597,774.2244 L386.1597,776.9431 Q385.5347,776.365 384.941,776.0994 Q384.3472,775.8181 383.7222,775.8181 Q382.3785,775.8181 381.691,776.8963 Q381.0035,777.9588 381.0035,780.0525 Q381.0035,782.1463 381.691,783.2244 Q382.3785,784.2869 383.7222,784.2869 Q384.3472,784.2869 384.941,784.0213 Q385.5347,783.74 386.1597,783.1619 L386.1597,785.8806 Z " fill="#000000"/><text fill="#000000" font-family="sans-serif" font-size="14" lengthAdjust="spacing" textLength="40.5303" x="403.691" y="785.0867">Client</text><line style="stroke:#181818;stroke-width:0.5;" x1="332.46" x2="482.9522" y1="796.24" y2="796.24"/><rect fill="none" height="6" style="stroke:#C82930;stroke-width:1.0;" width="6" x="339.46" y="806.8884"/><text fill="#000000" font-family="sans-serif" font-size="14" lengthAdjust="spacing" textLength="126.4922" x="351.46" y="813.2351">connection: string</text><rect fill="none" height="6" style="stroke:#C82930;stroke-width:1.0;" width="6" x="339.46" y="823.1853"/><text fill="#000000" font-family="sans-serif" font-size="14" lengthAdjust="spacing" textLength="92.0322" x="351.46" y="829.532">send: byte[*]</text><line style="stroke:#181818;stroke-width:0.5;" x1="332.46" x2="482.9522" y1="836.8338" y2="836.8338"/></g><!--link Router to GinEngine--><g id="link_Router_GinEngine"><path codeLine="7" d="M412.7,116.25 C412.7,136.53 412.7,141.43 412.7,158.75 " fill="none" id="Router-GinEngine" style="stroke:#181818;stroke-width:1.0;"/><polygon fill="none" points="412.7,104.25,408.7,110.25,412.7,116.25,416.7,110.25,412.7,104.25" style="stroke:#181818;stroke-width:1.0;"/><polygon fill="#181818" points="412.7,164.75,416.7,155.75,412.7,159.75,408.7,155.75,412.7,164.75" style="stroke:#181818;stroke-width:1.0;"/><text fill="#000000" font-family="sans-serif" font-size="13" lengthAdjust="spacing" textLength="8.271" x="399.9201" y="123.8918">1</text><text fill="#000000" font-family="sans-serif" font-size="13" lengthAdjust="spacing" textLength="8.271" x="399.4312" y="154.0061">1</text></g><!--link GinEngine to CampaignResource--><g id="link_GinEngine_CampaignResource"><path codeLine="12" d="M346.8765,223.4812 C302.5365,243.3212 255.6769,264.2899 204.1069,287.3599 " fill="none" id="GinEngine-CampaignResource" style="stroke:#181818;stroke-width:1.0;"/><polygon fill="none" points="357.83,218.58,350.7195,217.3794,346.8765,223.4812,353.987,224.6817,357.83,218.58" style="stroke:#181818;stroke-width:1.0;"/><polygon fill="#181818" points="198.63,289.81,208.4788,289.7861,203.1941,287.7682,205.212,282.4835,198.63,289.81" style="stroke:#181818;stroke-width:1.0;"/><text fill="#000000" font-family="sans-serif" font-size="13" lengthAdjust="spacing" textLength="8.271" x="337.6774" y="218.0823">1</text><text fill="#000000" font-family="sans-serif" font-size="13" lengthAdjust="spacing" textLength="8.271" x="199.8789" y="279.1902">1</text></g><!--link GinEngine to UserResource--><g id="link_GinEngine_UserResource"><path codeLine="13" d="M412.7,233.46 C412.7,250.79 412.7,255.66 412.7,275.9 " fill="none" id="GinEngine-UserResource" style="stroke:#181818;stroke-width:1.0;"/><polygon fill="none" points="412.7,221.46,408.7,227.46,412.7,233.46,416.7,227.46,412.7,221.46" style="stroke:#181818;stroke-width:1.0;"/><polygon fill="#181818" points="412.7,281.9,416.7,272.9,412.7,276.9,408.7,272.9,412.7,281.9" style="stroke:#181818;stroke-width:1.0;"/><text fill="#000000" font-family="sans-serif" font-size="13" lengthAdjust="spacing" textLength="8.271" x="399.4312" y="241.4027">1</text><text fill="#000000" font-family="sans-serif" font-size="13" lengthAdjust="spacing" textLength="8.271" x="399.8843" y="271.0724">1</text></g><!--link GinEngine to WebsocketConnection--><g id="link_GinEngine_WebsocketConnection"><path codeLine="14" d="M467.66,219.37 C515.94,241.63 580.9313,271.6076 632.8513,295.5476 " fill="none" id="GinEngine-to-WebsocketConnection" style="stroke:#181818;stroke-width:1.0;"/><polygon fill="#181818" points="638.3,298.06,631.8019,290.659,633.7594,295.9664,628.4521,297.9239,638.3,298.06" style="stroke:#181818;stroke-width:1.0;"/><text fill="#000000" font-family="sans-serif" font-size="13" lengthAdjust="spacing" textLength="8.271" x="475.1138" y="218.742">1</text><text fill="#000000" font-family="sans-serif" font-size="13" lengthAdjust="spacing" textLength="8.271" x="612.1555" y="287.5072">1</text></g><!--link CampaignResource to EventHub--><g id="link_CampaignResource_EventHub"><path codeLine="21" d="M175.47,371.34 C216.43,396.09 264.6248,425.1968 309.8348,452.5168 " fill="none" id="CampaignResource-to-EventHub" style="stroke:#181818;stroke-width:1.0;stroke-dasharray:7.0,7.0;"/><polygon fill="#181818" points="314.97,455.62,309.336,447.5418,310.6907,453.034,305.1984,454.3887,314.97,455.62" style="stroke:#181818;stroke-width:1.0;"/><text fill="#000000" font-family="sans-serif" font-size="13" lengthAdjust="spacing" textLength="46.5664" x="259.7" y="422.1169">Publish</text></g><!--link WebsocketConnection to EventHub--><g id="link_WebsocketConnection_EventHub"><path codeLine="33" d="M643.9989,369.3586 C601.6189,394.8686 556.3401,422.145 505.7701,452.595 " fill="none" id="WebsocketConnection-EventHub" style="stroke:#181818;stroke-width:1.0;"/><polygon fill="none" points="654.28,363.17,647.0766,362.8372,643.9989,369.3586,651.2023,369.6913,654.28,363.17" style="stroke:#181818;stroke-width:1.0;"/><polygon fill="#181818" points="500.63,455.69,510.4035,454.4742,504.9134,453.1108,506.2768,447.6207,500.63,455.69" style="stroke:#181818;stroke-width:1.0;"/><text fill="#000000" font-family="sans-serif" font-size="13" lengthAdjust="spacing" textLength="8.271" x="631.1817" y="382.8882">1</text><text fill="#000000" font-family="sans-serif" font-size="13" lengthAdjust="spacing" textLength="8.271" x="499.2491" y="444.9097">1</text></g><!--link EventHub to Subscription--><g id="link_EventHub_Subscription"><path codeLine="42" d="M407.7,581.38 C407.7,604.13 407.7,611.14 407.7,628.54 " fill="none" id="EventHub-Subscription" style="stroke:#181818;stroke-width:1.0;"/><polygon fill="#181818" points="407.7,569.38,403.7,575.38,407.7,581.38,411.7,575.38,407.7,569.38" style="stroke:#181818;stroke-width:1.0;"/><polygon fill="#181818" points="407.7,634.54,411.7,625.54,407.7,629.54,403.7,625.54,407.7,634.54" style="stroke:#181818;stroke-width:1.0;"/><text fill="#000000" font-family="sans-serif" font-size="13" lengthAdjust="spacing" textLength="8.271" x="394.9932" y="589.2838">1</text><text fill="#000000" font-family="sans-serif" font-size="13" lengthAdjust="spacing" textLength="8.271" x="394.009" y="623.2397">1</text></g><!--link Subscription to Client--><g id="link_Subscription_Client"><path codeLine="44" d="M407.7,711.1328 C407.7,733.1928 407.7,731.66 407.7,757.94 " fill="none" id="Subscription-Client" style="stroke:#181818;stroke-width:1.0;"/><polygon fill="none" points="407.7,699.1328,403.7,705.1328,407.7,711.1328,411.7,705.1328,407.7,699.1328" style="stroke:#181818;stroke-width:1.0;"/><polygon fill="#181818" points="407.7,763.94,411.7,754.94,407.7,758.94,403.7,754.94,407.7,763.94" style="stroke:#181818;stroke-width:1.0;"/><text fill="#000000" font-family="sans-serif" font-size="13" lengthAdjust="spacing" textLength="4.1323" x="396.2051" y="702.0885">&#160;</text><text fill="#000000" font-family="sans-serif" font-size="13" lengthAdjust="spacing" textLength="8.271" x="394.1357" y="717.2213">1</text><text fill="#000000" font-family="sans-serif" font-size="13" lengthAdjust="spacing" textLength="27.168" x="372.2386" y="738.2073">0...*</text><text fill="#000000" font-family="sans-serif" font-size="13" lengthAdjust="spacing" textLength="35.5088" x="370.1344" y="753.3401">value</text></g><rect fill="#FFFFFF" height="17.1328" style="stroke:#000000;stroke-width:0.5;" width="81.8921" x="366.754" y="682"/><text fill="#000000" font-family="sans-serif" font-size="13" lengthAdjust="spacing" textLength="77.8921" x="368.754" y="695.0669">topic: string</text><!--SRC=[dLB1Re904Btp5HjFr5RINednK6Fqq8CHZGVhOLack15toSvWOup_NWGMWP8sAPTbTcRUlFTcHS8HsKfd1ERgiFnx3e2oT8DWLe0wCmBS9v-TjOmQwIs4gCKHQAgL0a5IgvwgAJ-bNCPgBKzWwlpDSSfvRF361aoFHfFoRoxLJCLIWUE8WbPzmSRZzK6QQBJaXYwJoVKEyiXsWUnSA-2NqgRE7sLrLOzSox4xws4Y9N02HKij5M7RdIqdSGY-U3exGpEPg-hYCS-RiA9iaON-CWiJYGSxlCc-6Zm7kj-kEHun84uPkZoA323w3Cb85RUOLEKboOL4qkRoLyC7y0XCgBc9NChdTEjkbbwFRHNBTwcYdgUJT_RqT7TctR1ZR5nYZp0BKHWPWiaL16MG5YihDsFJBkbK2al-XOb4vZW-cnPdI_H6uJ-wgcLrEqwvjJo67jUia5Bci1RS4k4q8xPhWU_Pu5EnXrkldkSDyvipJp8OL1phbrj4bMcYTjjYLMQ2YdmMNWXsmxrp-mO0]--></g></svg>